# xmcd
#
# Track frame offsets:
#	150
#	13583
#	30338
#	45920
#	60971
#	75076
#	90782
#	104968
#	122018
#	139092
#
# Disc length: 2069 seconds
#
# Revision: 1
# Processed by: cddbd v1.5.2PL0 Copyright (c) Steve Scherf et al.
# Submitted via: audiograbber 1.83.01
#
DISCID=6508130a
DTITLE=Juice Newton - Take Heart (Second BGO disc)
DYEAR=1979
DGENRE=Country
TTITLE0=Sunshine
TTITLE1=Just Holding On
TTITLE2=Any Way That You Want Me
TTITLE3=Until Tonight
TTITLE4=Tear It Up
TTITLE5=You Fill My Life
TTITLE6=One Step At A Time
TTITLE7=San Diego Serenade
TTITLE8=The Dream Never Dies
TTITLE9=Lay Back In The Arms of Someone
EXTD=CD Two of the three album set on BGO records Great Britan\nCome to Me, Wel
EXTD=l Kept Secret, Take Heart
EXTT0=
EXTT1=
EXTT2=
EXTT3=
EXTT4=
EXTT5=
EXTT6=
EXTT7=
EXTT8=
EXTT9=
PLAYORDER=
